<svg width="199" height="149" viewBox="0 0 199 149" fill="none" xmlns="http://www.w3.org/2000/svg">
<path d="M74.5 14C93 20.5 98 26.5 100.5 27C102 27 124 0.500024 150.5 0.5C168.007 0.499984 178.5 5 189.5 18C200.5 31 201 47.5 195.5 65C190 82.5 174 98 164 106C154 114 133 128.5 125.5 133.5C118 138.5 108.5 148.5 106.5 148.5C104.5 148.5 96.5 142 88.5 137C80.5001 132 63.5005 124.5 46.5008 117L46.5 117C29.5 109.5 18 101 7.49995 85C-3.00005 69 -0.500046 51.5 3.99995 39.5C8.49995 27.5 19.5 12.5 32.5 8.49999C45.5 4.49999 56 7.49999 74.5 14Z" fill="white"/>
<path d="M56.9998 16.5C74.4998 19.5 98.9998 34.5 102 34.5C105 34.5 120 12.6143 144 8.5C161.5 5.5 175.5 10 187.5 27.5C199.5 45 190.5 64.5 184.5 74C178.5 83.5 147.5 108.5 129 122C110.5 135.5 109.5 139 107 139C104.5 139 102 137 88.5 129C75.0002 121 63 116 46 108C29 100 19.4998 89.5 12.9998 79C6.4998 68.5 3.4998 50 15.4998 33C27.4998 16 39.4998 13.5 56.9998 16.5Z" fill="#171321"/>
<path d="M67.9999 32C88.9999 38.5 98.4999 50 101 50C103.5 50 121.5 30 139 24.5C152.907 20.1293 171 22 176 32C181 42 181 57.5 167.5 73.5C154 89.5 107.5 124.5 106 124.5C104.5 124.5 88 112.5 72.5 105C57 97.5 46.4999 91 34.9999 82C23.4999 73 17.9999 55.5 27.4999 41C36.9999 26.5 46.9999 25.5 67.9999 32Z" fill="#FF87D4"/>
<g style="mix-blend-mode:multiply" opacity="0.2">
<path d="M34.9999 82C23.4999 73 17.9999 55.5 27.4999 41C26.1666 45.6667 24.8 56.8 30 64C36.5 73 43.5 77.5 47.5 81C51.5 84.5 63 91.5 73.5 95C84 98.5 93.0001 107.5 97 109C101 110.5 105 108 115.5 100.5C126 93 149 71 155 64C161 57 170.5 48.5 167.5 36.5C165.1 26.9 156.833 23.0228 153 22.2842C163.102 22.1448 172.592 25.1842 176 32C181 42 181 57.5 167.5 73.5C154 89.5 107.5 124.5 106 124.5C104.5 124.5 88 112.5 72.5 105C57 97.5 46.4999 91 34.9999 82Z" fill="#171321"/>
</g>
</svg>
